<svg version="1.2" xmlns="http://www.w3.org/2000/svg" viewBox="0 0 500 500" width="100" height="100">
	<title>closed-caption-disabled-svg</title>
	<style>
		.s0 { fill: #000000 } 
	</style>
	<path id="Layer" fill-rule="evenodd" class="s0" d="m125.8 32h304.2c27.5 0 50 22.5 50 50v300c0 1.3-0.3 2.5-0.5 4l-84.5-84.5c6-4.7 10-11.5 10-19.5v-12.5c0-7-5.5-12.5-12.5-12.5h-12.5c-7 0-12.5 5.5-12.5 12.5h-4.3l-45.7-45.7v-29.3h50c0 7 5.5 12.5 12.5 12.5h12.5c7 0 12.5-5.5 12.5-12.5v-12.5c0-13.7-11.2-25-25-25h-75c-13.7 0-25 11.3-25 25v4.3zm341.5 447.4c-9.7 9.8-25.5 9.8-35.2 0.1l-47.5-47.5h-304.5c-27.8 0-50-22.5-50-50v-300c0-1.3 0.5-2.5 0.5-3.8l-23-23c-9.8-9.7-9.8-25.5 0-35.2 9.7-9.8 25.5-9.8 35.2 0l424.3 424.2c10 9.8 10 25.5 0.2 35.3zm-237.3-201.8l-20.7-20.7h-4.2c-7 0-12.5 5.5-12.5 12.5h-50v-75h4.2l-31.7-32c-6 4.7-10 11.5-10 19.5v100c0 13.7 11.2 25 25 25h75c13.7 0 25-11.3 25-25z"/>
</svg>