<svg version="1.2" xmlns="http://www.w3.org/2000/svg" viewBox="0 0 10 10" width="100" height="100">
	<title>closed-caption-enabled-svg</title>
	<style>
		.s0 { fill: #000000 } 
	</style>
	<path id="Layer" fill-rule="evenodd" class="s0" d="m0 1.6c0-0.6 0.5-1 1-1h8c0.5 0 1 0.4 1 1v6.8c0 0.6-0.5 1-1 1h-8c-0.5 0-1-0.4-1-1zm4.4 2.4c0-0.3-0.2-0.6-0.5-0.6h-1.7c-0.3 0-0.5 0.3-0.5 0.6v2.2c0 0.3 0.2 0.5 0.5 0.5h1.7c0.3 0 0.5-0.2 0.5-0.5v-0.3c0-0.2-0.1-0.3-0.2-0.3h-0.3c-0.2 0-0.3 0.1-0.3 0.3h-1.1v-1.7h1.1c0 0.2 0.1 0.3 0.3 0.3h0.3c0.1 0 0.2-0.1 0.2-0.3zm3.9 0c0-0.3-0.2-0.5-0.5-0.5h-1.7c-0.3 0-0.5 0.2-0.5 0.5v2.3c0 0.3 0.2 0.5 0.5 0.5h1.7c0.3 0 0.5-0.2 0.5-0.5v-0.3c0-0.2-0.1-0.3-0.3-0.3h-0.2c-0.2 0-0.3 0.1-0.3 0.3h-1.1v-1.7h1.1c0 0.2 0.1 0.3 0.3 0.3h0.2c0.2 0 0.3-0.1 0.3-0.3z"/>
</svg>